<?xml version="1.0" encoding="UTF-8" standalone="no"?>
<svg
   width="64"
   height="64"
   viewBox="0 0 64 64"
   version="1.1"
   id="svg4"
   sodipodi:docname="hint.svg"
   inkscape:version="1.1.2 (0a00cf5339, 2022-02-04)"
   xmlns:inkscape="http://www.inkscape.org/namespaces/inkscape"
   xmlns:sodipodi="http://sodipodi.sourceforge.net/DTD/sodipodi-0.dtd"
   xmlns="http://www.w3.org/2000/svg"
   xmlns:svg="http://www.w3.org/2000/svg">
  <defs
     id="defs8" />
  <sodipodi:namedview
     id="namedview6"
     pagecolor="#ffffff"
     bordercolor="#666666"
     borderopacity="1.0"
     inkscape:pageshadow="2"
     inkscape:pageopacity="0.0"
     inkscape:pagecheckerboard="true"
     showgrid="false"
     width="64px"
     borderlayer="true"
     inkscape:zoom="8.7916667"
     inkscape:cx="38.957346"
     inkscape:cy="32.303318"
     inkscape:window-width="1920"
     inkscape:window-height="1029"
     inkscape:window-x="0"
     inkscape:window-y="27"
     inkscape:window-maximized="1"
     inkscape:current-layer="svg4" />
  <path
     fill="#ffffff"
     d="m 25.142857,53.6 c 0,1.2 0.914286,2.4 2.285714,2.4 h 9.142858 c 1.371428,0 2.285714,-1.2 2.285714,-2.4 V 51.2 H 25.142857 Z M 32,8 c -8.914286,0 -16,7.44 -16,16.8 0,5.76 2.742857,10.8 6.857143,13.68 V 44 c 0,1.2 0.914286,2.4 2.285714,2.4 h 13.714286 c 1.371428,0 2.285714,-1.2 2.285714,-2.4 V 38.48 C 45.257143,35.36 48,30.32 48,24.8 48,15.44 40.914286,8 32,8 Z"
     id="path2"
     style="stroke-width:2.34216;fill:#333333" />
</svg>
