<?xml version="1.0" encoding="UTF-8" standalone="no"?>
<svg
   width="64"
   height="64"
   viewBox="0 0 64 64"
   version="1.1"
   id="svg4"
   sodipodi:docname="local.svg"
   inkscape:version="1.1.2 (0a00cf5339, 2022-02-04)"
   xmlns:inkscape="http://www.inkscape.org/namespaces/inkscape"
   xmlns:sodipodi="http://sodipodi.sourceforge.net/DTD/sodipodi-0.dtd"
   xmlns="http://www.w3.org/2000/svg"
   xmlns:svg="http://www.w3.org/2000/svg">
  <defs
     id="defs8" />
  <sodipodi:namedview
     id="namedview6"
     pagecolor="#ffffff"
     bordercolor="#666666"
     borderopacity="1.0"
     inkscape:pageshadow="2"
     inkscape:pageopacity="0.0"
     inkscape:pagecheckerboard="true"
     showgrid="false"
     borderlayer="true"
     width="64px"
     inkscape:zoom="8.7916667"
     inkscape:cx="32.92891"
     inkscape:cy="25.251185"
     inkscape:window-width="1920"
     inkscape:window-height="1029"
     inkscape:window-x="0"
     inkscape:window-y="27"
     inkscape:window-maximized="1"
     inkscape:current-layer="svg4" />
  <path
     fill="#ffffff"
     d="m 40.727273,29.714286 c 3.621818,0 6.523636,-3.062858 6.523636,-6.857144 C 47.250909,19.062858 44.349091,16 40.727273,16 c -3.621818,0 -6.545455,3.062858 -6.545455,6.857142 0,3.794286 2.923637,6.857144 6.545455,6.857144 z m -17.454546,0 c 3.621818,0 6.523637,-3.062858 6.523637,-6.857144 C 29.796364,19.062858 26.894545,16 23.272727,16 c -3.621818,0 -6.545454,3.062858 -6.545454,6.857142 0,3.794286 2.923636,6.857144 6.545454,6.857144 z m 0,4.571428 C 18.189091,34.285714 8,36.96 8,42.285714 V 48 h 30.545455 v -5.714286 c 0,-5.325714 -10.189091,-8 -15.272728,-8 z m 17.454546,0 c -0.632728,0 -1.352728,0.04572 -2.116364,0.114286 2.530909,1.92 4.298182,4.502858 4.298182,7.885714 V 48 H 56 v -5.714286 c 0,-5.325714 -10.189091,-8 -15.272727,-8 z"
     id="path2"
     style="stroke-width:2.23316;fill:#333333" />
</svg>
