<?xml version="1.0" encoding="UTF-8" standalone="no"?>
<svg
   width="64"
   height="64"
   viewBox="0 0 64 64"
   version="1.1"
   id="svg4"
   sodipodi:docname="online.svg"
   inkscape:version="1.1.2 (0a00cf5339, 2022-02-04)"
   xmlns:inkscape="http://www.inkscape.org/namespaces/inkscape"
   xmlns:sodipodi="http://sodipodi.sourceforge.net/DTD/sodipodi-0.dtd"
   xmlns="http://www.w3.org/2000/svg"
   xmlns:svg="http://www.w3.org/2000/svg">
  <defs
     id="defs8" />
  <sodipodi:namedview
     id="namedview6"
     pagecolor="#ffffff"
     bordercolor="#666666"
     borderopacity="1.0"
     inkscape:pageshadow="2"
     inkscape:pageopacity="0.0"
     inkscape:pagecheckerboard="true"
     showgrid="false"
     borderlayer="true"
     width="64px"
     inkscape:zoom="8.7916667"
     inkscape:cx="64.322275"
     inkscape:cy="30.938389"
     inkscape:window-width="1920"
     inkscape:window-height="1029"
     inkscape:window-x="0"
     inkscape:window-y="27"
     inkscape:window-maximized="1"
     inkscape:current-layer="svg4" />
  <path
     fill="#ffffff"
     d="m 32,33.5 c 3.26,0 6.14,0.78 8.48,1.8 2.16,0.96 3.52,3.12 3.52,5.46 L 44,44 H 20 v -3.22 c 0,-2.36 1.36,-4.52 3.52,-5.46 C 25.86,34.28 28.74,33.5 32,33.5 Z M 16,34 c 2.2,0 4,-1.8 4,-4 0,-2.2 -1.8,-4 -4,-4 -2.2,0 -4,1.8 -4,4 0,2.2 1.8,4 4,4 z m 2.26,2.2 C 17.52,36.08 16.78,36 16,36 14.02,36 12.14,36.42 10.44,37.16 8.96,37.8 8,39.24 8,40.86 V 44 h 9 v -3.22 c 0,-1.66 0.46,-3.22 1.26,-4.58 z M 48,34 c 2.2,0 4,-1.8 4,-4 0,-2.2 -1.8,-4 -4,-4 -2.2,0 -4,1.8 -4,4 0,2.2 1.8,4 4,4 z m 8,6.86 C 56,39.24 55.04,37.8 53.56,37.16 51.86,36.42 49.98,36 48,36 c -0.78,0 -1.52,0.08 -2.26,0.2 0.8,1.36 1.26,2.92 1.26,4.58 V 44 h 9 z M 32,20 c 3.32,0 6,2.68 6,6 0,3.32 -2.68,6 -6,6 -3.32,0 -6,-2.68 -6,-6 0,-3.32 2.68,-6 6,-6 z"
     id="path2"
     style="stroke-width:2;fill:#333333" />
</svg>
