<?xml version="1.0" encoding="UTF-8" standalone="no"?>
<svg
   width="64"
   height="64"
   viewBox="0 0 64 64"
   version="1.1"
   id="svg4"
   sodipodi:docname="radiobutton.svg"
   inkscape:version="1.1.2 (0a00cf5339, 2022-02-04)"
   xmlns:inkscape="http://www.inkscape.org/namespaces/inkscape"
   xmlns:sodipodi="http://sodipodi.sourceforge.net/DTD/sodipodi-0.dtd"
   xmlns="http://www.w3.org/2000/svg"
   xmlns:svg="http://www.w3.org/2000/svg">
  <defs
     id="defs8" />
  <sodipodi:namedview
     id="namedview6"
     pagecolor="#ffffff"
     bordercolor="#666666"
     borderopacity="1.0"
     inkscape:pageshadow="2"
     inkscape:pageopacity="0.0"
     inkscape:pagecheckerboard="true"
     showgrid="false"
     width="64px"
     borderlayer="true"
     inkscape:zoom="8.7916667"
     inkscape:cx="51.35545"
     inkscape:cy="29.459716"
     inkscape:window-width="1920"
     inkscape:window-height="1029"
     inkscape:window-x="0"
     inkscape:window-y="27"
     inkscape:window-maximized="1"
     inkscape:current-layer="svg4" />
  <path
     fill="#ffffff"
     d="m 32,16 c -8.832,0 -16,7.168 -16,16 0,8.832 7.168,16 16,16 8.832,0 16,-7.168 16,-16 C 48,23.168 40.832,16 32,16 Z M 32,0 C 14.336,0 0,14.336 0,32 0,49.664 14.336,64 32,64 49.664,64 64,49.664 64,32 64,14.336 49.664,0 32,0 Z m 0,57.6 C 17.856,57.6 6.4,46.144 6.4,32 6.4,17.856 17.856,6.4 32,6.4 46.144,6.4 57.6,17.856 57.6,32 57.6,46.144 46.144,57.6 32,57.6 Z"
     id="path2"
     style="fill:#008000;stroke-width:3.19999" />
</svg>
