<?xml version="1.0" encoding="UTF-8" standalone="no"?>
<svg
   width="64"
   height="64"
   viewBox="0 0 64 64"
   version="1.1"
   id="svg4"
   sodipodi:docname="settings.svg"
   inkscape:version="1.1.2 (0a00cf5339, 2022-02-04)"
   xmlns:inkscape="http://www.inkscape.org/namespaces/inkscape"
   xmlns:sodipodi="http://sodipodi.sourceforge.net/DTD/sodipodi-0.dtd"
   xmlns="http://www.w3.org/2000/svg"
   xmlns:svg="http://www.w3.org/2000/svg">
  <defs
     id="defs8" />
  <sodipodi:namedview
     id="namedview6"
     pagecolor="#ffffff"
     bordercolor="#666666"
     borderopacity="1.0"
     inkscape:pageshadow="2"
     inkscape:pageopacity="0.0"
     inkscape:pagecheckerboard="true"
     showgrid="false"
     borderlayer="true"
     inkscape:zoom="4.3958333"
     inkscape:cx="23.43128"
     inkscape:cy="29.118483"
     inkscape:window-width="1920"
     inkscape:window-height="1029"
     inkscape:window-x="0"
     inkscape:window-y="27"
     inkscape:window-maximized="1"
     inkscape:current-layer="svg4" />
  <path
     fill="#ffffff"
     d="m 50.350824,34.35 c 0.10281,-0.75 0.154208,-1.525 0.154208,-2.35 0,-0.8 -0.05141,-1.6 -0.17991,-2.35 l 5.217391,-3.95 c 0.462626,-0.35 0.591134,-1.025 0.308418,-1.525 l -4.934676,-8.3 c -0.308418,-0.55 -0.950953,-0.725 -1.516384,-0.55 l -6.142643,2.4 c -1.285072,-0.95 -2.647248,-1.75 -4.163632,-2.35 L 38.168343,9.025 C 38.065538,8.425 37.551509,8 36.934674,8 h -9.86935 c -0.616835,0 -1.105161,0.425 -1.207968,1.025 l -0.925251,6.35 c -1.516385,0.6 -2.904263,1.425 -4.163633,2.35 l -6.142642,-2.4 c -0.565431,-0.2 -1.207968,0 -1.516385,0.55 l -4.908973,8.3 C 7.8920548,24.7 7.9948606,25.35 8.5088893,25.7 l 5.2173907,3.95 c -0.128505,0.75 -0.231314,1.575 -0.231314,2.35 0,0.775 0.05141,1.6 0.17991,2.35 L 8.4574864,38.3 c -0.4626258,0.35 -0.5911331,1.025 -0.3084173,1.525 l 4.9346749,8.3 c 0.308417,0.55 0.950952,0.725 1.516385,0.55 l 6.142642,-2.4 c 1.285071,0.95 2.647248,1.75 4.163633,2.35 l 0.925251,6.35 C 25.96016,55.575 26.448489,56 27.065324,56 h 9.86935 c 0.616835,0 1.130864,-0.425 1.207968,-1.025 l 0.925251,-6.35 c 1.516385,-0.6 2.904263,-1.4 4.163633,-2.35 l 6.142644,2.4 c 0.565431,0.2 1.207966,0 1.516384,-0.55 l 4.934675,-8.3 c 0.308418,-0.55 0.17991,-1.175 -0.308417,-1.525 z M 32,41 c -5.088885,0 -9.252518,-4.05 -9.252518,-9 0,-4.95 4.163633,-9 9.252518,-9 5.088883,0 9.252516,4.05 9.252516,9 0,4.95 -4.163633,9 -9.252516,9 z"
     id="path2"
     style="fill:#333333;stroke-width:2.53483" />
</svg>
